<?xml version="1.0" encoding="utf-8"?>
<!-- Generator: Adobe Illustrator 23.1.0, SVG Export Plug-In . SVG Version: 6.00 Build 0)  -->
<svg version="1.0" id="图层_1" xmlns="http://www.w3.org/2000/svg" xmlns:xlink="http://www.w3.org/1999/xlink" x="0px" y="0px"
	 viewBox="0 0 1147.8 897.7" style="enable-background:new 0 0 1147.8 897.7;" xml:space="preserve">
<style type="text/css">
	.st0{fill:#FAA2D4;}
	.st1{fill:#D2B0F5;}
	.st2{fill:#FEA2C9;}
	.st3{fill:#DA87E3;}
	.st4{fill:#E2A9EB;}
	.st5{fill:#C4B6F9;}
	.st6{fill:#F6A2D9;}
	.st7{fill:#FDA2CE;}
	.st8{fill:#E8A6E7;}
	.st9{fill:#F2A2DE;}
	.st10{fill:#FEB0BF;}
	.st11{fill:#DCACEF;}
	.st12{fill:#FE7FBA;}
	.st13{fill:#F07FD0;}
	.st14{fill:#FEA8C4;}
	.st15{fill:#C98EEE;}
	.st16{fill:#FE8AAC;}
	.st17{fill:#CAB3F7;}
	.st18{fill:#B996F5;}
	.st19{fill:#C2A1F5;}
	.st20{fill:#FE90C2;}
	.st21{fill:#E074D8;}
	.st22{fill:#D673DC;}
</style>
<g>
	<path class="st0" d="M326.3,421.1c0.8-1.5,2.3-2.1,3.6-3c1.6,0,2.7,0.9,3.9,1.9c11.7,9.2,23.4,18.3,35.1,27.5
		c8.5,6.7,16.9,13.3,25.3,20c6.8,5.4,13.6,10.7,20.5,16.1c7.8,6.1,15.6,12.1,23.2,18.4c0.4,0.3,0.8,0.7,0.6,1.2
		c-11.7,3.1-23.5,6.2-35.2,9.3c-17.6,4.7-35.2,9.4-52.7,14.1c-30.4,8.2-60.9,16.4-91.3,24.5c-0.9-1.6,0.3-2.6,0.9-3.8
		c12.8-24.8,26-49.4,39.1-74c8.3-15.7,16.6-31.3,25.1-46.9C325.2,424.7,326.3,423.1,326.3,421.1z"/>
	<path class="st1" d="M865.3,416.9c4.5-2.1,8.6-2.5,13.6-0.3c15,6.9,30.4,13,45.6,19.5c16.1,6.9,32.2,13.8,48.4,20.7
		c10.6,4.5,21.3,9,32,13.5c1.6,0.7,3.2,1.2,4.5,2.3c0.2,1.5-1.2,1.7-2,2.2c-17.4,8.4-34.7,17-52.2,25.3c-8,3.8-15.8,8-24,11.5
		c-5.2,2.2-10.2,4.7-15.3,7.3c-2.2,1.8-5.1,2.1-7.6,3.3c-0.9,0.5-1.7-0.2-2.5-0.6c-15.5-8.4-30.9-16.9-46.4-25.4
		c-9.6-5.3-19.2-10.5-28.8-15.8c-2.8-1.5-5.6-3.1-8.3-4.6c-0.2-0.2-0.3-0.5-0.3-0.8c1.8-3.7,4.9-6.5,7.6-9.5
		c13.5-15.6,26.7-31.4,40.2-47.1c0.4-0.4,0.7-0.9,1-1.5C868.7,416.6,867,418.3,865.3,416.9z"/>
	<path class="st2" d="M51,519.4c8.9,1.3,17.9,2.5,26.8,3.9c11.3,1.7,22.6,3.4,33.9,5.1c14.7,2.3,29.4,4.6,44.2,6.8
		c10,1.5,20,3.1,30,4.6c0.3,1.2-0.7,1.7-1.5,2.4c-16,13.5-31.9,27.2-47.9,40.7c-10.4,8.7-20.7,17.5-30.9,26.5
		c-1.4,1.2-2.8,2.2-4.3,3.3c-0.5,0.5-1.4,0.7-1.6,1.6c-0.4,0.2-0.8,0.4-1.3,0.5c-1.7,0.6-2.3-0.7-2.8-1.8
		c-5.9-12-12.4-23.6-18.5-35.5c-6.9-13.6-14.1-27-21.2-40.5c-2.5-4.8-4.9-9.6-7.5-14.3c-0.5-0.9-1.3-2.1-0.5-3
		C48.8,518.6,50,518.9,51,519.4z"/>
	<path class="st3" d="M748.4,557.7c-7.2-4.2-14.5-8.3-21.7-12.5c-18.2-10.5-36.4-21.1-54.6-31.6c-18.4-10.6-36.8-21.3-55.1-31.9
		c-12.1-7-24.2-14-36.2-21c-0.6-0.3-1.3-0.5-2-0.7c-0.2-0.3-0.2-0.6,0.1-0.9c0.7-0.7,1.3-1.4,1.2-2.6c-0.5-3.5,0.1-7.1-0.7-10.6
		c0-0.9,0-1.8,1-2.3c1.7,1.2,3.5,1.7,5.6,1.6c16-0.7,32-0.3,47.9-0.8c8.1-0.2,16.2-0.3,24.3-0.4c1.5,0,3-0.1,4.4,0.6
		c1.9,0.8,3.2,2.2,4.4,3.8c15.8,20.6,31.5,41.3,47.4,61.8c11,14.3,21.9,28.7,33,43.1c0.7,0.9,1.6,1.8,2,3
		C749.4,557,749.6,557.9,748.4,557.7z"/>
	<path class="st4" d="M748.4,557.7c0.9-0.7,0.3-1.2-0.2-1.7c-10.7-13.9-21.5-27.8-32.2-41.8c-7.2-9.5-14.4-19-21.6-28.4
		c-10-13.1-20-26.2-30-39.3c-0.3-0.4-0.8-0.6-1.2-0.9c-0.2-0.2-0.2-0.3-0.2-0.4c0.1-0.1,0.1-0.2,0.2-0.2c19.3-0.6,38.7-0.1,58-0.7
		c14.1-0.5,28.1-0.1,42.1-0.5c0.9,0.9,0.6,2.1,0.4,3.1c-2.1,18.8-4.3,37.7-6.4,56.5c-1.9,16.7-3.7,33.3-5.7,50
		c-0.2,1.9-0.5,3.8-1.5,5.4C749.6,558.5,749,558.1,748.4,557.7z"/>
	<path class="st5" d="M1138.1,410.8c1.8-1,3.6-2.1,5.4-3.1c1.8-1,3.9,0,4.2,2c0.1,0.7,0,1.4,0,2.1c0,26.9,0,53.9,0,80.8
		c0,2.5-0.2,3.4-3.2,2.9c-14.2-2.4-28.5-4.4-42.7-6.5c-11.6-1.7-23.2-3.3-34.8-5.1c-12.4-1.9-24.7-3.8-37.1-5.7
		c-2.9-0.5-5.9-0.5-8.8-1.5c0.1-1.8,1.7-2.3,2.9-3c8.8-4.7,17.3-9.9,26.1-14.5c5.3-2.8,10.4-5.8,15.7-8.7c7.8-4.3,15.4-8.8,23.2-13
		c7.6-4.2,15.1-8.4,22.7-12.6c5.2-2.9,10.6-5.6,15.7-8.7c2.5-1.5,5.4-2,7.6-4.1l0,0C1136.1,411.5,1137.2,411.5,1138.1,410.8z"/>
	<path class="st6" d="M438.4,503.1c-6-4.7-11.9-9.5-17.9-14.2c-5.2-4.1-10.5-8.1-15.7-12.1c-7.1-5.5-14.1-11.1-21.2-16.7
		c-5.5-4.3-11-8.7-16.6-13c-8.5-6.7-17-13.3-25.4-20c-3.9-3-7.8-6-11.8-9.1c5-0.3,9.7,1.2,14.5,2c15.1,2.4,30.2,5.1,45.2,7.6
		c15,2.5,30,5,45,7.4c15.2,2.5,30.4,5,45.5,7.6c1.7,0.3,3.3,0.8,5,0.5c0.1,0.1,0.1,0.2,0.2,0.4c-4.6,6.5-9.6,12.7-14.5,19
		c-9.5,12.3-19,24.6-28.5,36.9c-0.6,0.8-1.4,1.5-0.9,2.6C440.5,502.8,439.5,503,438.4,503.1z"/>
	<path class="st7" d="M326.3,421.1c2.2,0.6,0.6,1.8,0.2,2.5c-3.4,6.6-7,13.2-10.5,19.8c-6.2,11.6-12.4,23.3-18.7,34.9
		c-5.7,10.6-11.6,21-17,31.8c-5.1,10-10.8,19.8-15.6,30c-1.7,3.7-4,7.3-5.7,11.1c-0.4,0-0.8,0-1.2,0.1c-6.1,0.3-12-1.5-18-2.3
		c-16.1-2.2-32.1-4.9-48.1-7.3c-1.8-0.3-3.8-0.1-5.2-1.8c4.4-3.8,8.7-7.6,13.1-11.3c7.5-6.4,15-12.8,22.5-19.2
		c8.6-7.3,17.2-14.5,25.8-21.8c7.4-6.3,14.8-12.7,22.3-19c9.6-8.2,19.3-16.4,28.9-24.5c7.5-6.4,15-12.8,22.5-19.1
		C323.1,423.5,324.7,422.3,326.3,421.1z"/>
	<path class="st8" d="M663.3,445c0,0.2,0,0.4,0,0.7c-1-0.6-2.1-0.6-3.2-0.6c-6.8,0-13.6-0.4-20.4,0.1c-13,0.9-25.9,0-38.9,0.6
		c-5.7,0.3-11.3,0.2-17,0.5c-2.1,0.1-3.4-0.4-3.9-2.5c-0.8-0.6-0.9-1.5-0.9-2.4c-0.3-7.8-0.8-15.5-1.3-23.3
		c-0.6-9.9-1-19.9-1.6-29.8c-0.5-8.3-0.9-16.7-1.3-25.1c-0.6-10.5-1-21.1-1.7-31.6c0-0.6,0-1.2,0.1-1.8c0-0.2,0-0.4,0-0.6
		c1.2-1.1,1.5,0.2,1.9,0.8c9.7,12.5,19.3,25.1,28.9,37.6c13.7,17.9,27.5,35.8,41.2,53.8C651.3,429.3,657.3,437.2,663.3,445z"/>
	<path class="st9" d="M485.1,443.1c6.1-8,12.2-15.9,18.4-23.9c15.4-20,30.8-40,46.3-59.9c7.8-10.1,15.7-20,23.5-30
		c0,0,0.1,0.2,0.1,0.2c0.4,2.7,0.4,5.3,0,8c-5.3,35.1-10.6,70.1-15.8,105.2c-0.2,1.2-0.7,2.5,0.3,3.7c5.2,3.3,10.6,6.1,15.8,9.4
		c0.9,0.6,3,0.9,1.6,2.9c-1.5,0.6-2.9,0.2-4.4,0c-24.5-4.1-48.9-8.3-73.4-12.2c-3-0.5-6.1-1.1-9.1-1.6c-1.2-0.2-2.4-0.2-3.1-1.5
		L485.1,443.1z"/>
	<path class="st10" d="M34.2,617.7c-1.1,8.8-2.2,17.5-3.3,26.3c-1.1,8.8-2.2,17.5-3.3,26.3c-1.1,8.6-2.2,17.1-3.2,25.7
		c-1.1,8.7-2.2,17.3-3.3,26c-1.1,8.5-2.1,17-3.2,25.4c-1.1,8.8-2.3,17.5-3.4,26.3c-1.1,8.6-2.2,17.1-3.3,25.7
		c-1.1,8.7-2.2,17.3-3.3,26c-1.1,8.6-2.1,17.2-3.2,25.7c-1.1,8.6-2.2,17.1-3.3,25.7c-0.2,1.7-0.5,3.3-0.7,5.1
		c-0.9-0.9-0.5-1.7-0.5-2.5c0-86.3,0-172.5,0-258.8c0-1.1-0.3-2.2,0.5-3.2c10-0.6,19.9-1.1,29.9-0.8C31.7,617,33.2,616.5,34.2,617.7
		z"/>
	<path class="st11" d="M750.2,558.9c0.7-6.3,1.5-12.6,2.2-18.9c0.7-6,1.3-12,2-18c0.9-8,1.9-15.9,2.8-23.9c0.7-6.1,1.3-12.2,2-18.3
		c0.7-6.3,1.5-12.6,2.2-18.9c0.7-5.7,1.3-11.4,2-17.1c0.3-0.5,0.7-0.6,1.2-0.5c16.2,8.9,32.4,18,48.7,26.8c3,1.6,6,3,8.9,4.9
		c0,0.2,0,0.5,0,0.7c-4.2,3.3-7.1,7.7-10.6,11.7c-6.6,7.4-12.9,15.1-19.4,22.7c-7.7,9-15.3,18-23,27
		C762.9,544.4,756.5,551.6,750.2,558.9z"/>
	<path class="st12" d="M186.5,539.7c16.5,2.6,33,5.2,49.5,7.7c6.9,1.1,13.9,2.1,20.8,3.1c0.4,0.1,0.7,0.4,1,0.5
		c-8.5,4.2-17.5,7.2-26.3,10.8c-21,8.5-42,16.8-63.1,25.1c-16.9,6.7-33.7,13.3-50.6,20c-4.1,1.6-8,3.5-12.3,4.7
		c-1.1,0.3-2.1,0.9-3.2,1.3c-0.6,0.2-1.6,0.6-1.7-0.7c10.1-8.6,20.2-17.2,30.4-25.8c9.8-8.3,19.6-16.4,29.3-24.7
		c8.5-7.3,17-14.6,25.5-21.9C186.1,539.8,186.3,539.7,186.5,539.7z"/>
	<path class="st13" d="M485.2,443.3c7.7,1.4,15.4,2.8,23.1,4.1c9.3,1.6,18.6,3,27.9,4.5c12.2,2,24.4,4.2,36.6,6.2c1,0.2,2,0,3,0
		c1.5-0.8,2.3,0,3,1.2c0,0.2,0,0.4,0,0.6c-15.4,4.8-30.8,9.5-46.2,14.3c-16.9,5.2-33.7,10.3-50.6,15.5c-12.1,3.7-24.2,7.3-36.3,11
		c-1.4,0.5-2.9,0.6-4.2,1.2c0,0,0,0,0,0c-1.6,0.1-1.6-0.5-0.8-1.6c2.9-3.8,5.7-7.6,8.7-11.4c6.5-8.4,13.1-16.8,19.6-25.2
		c4.9-6.4,9.8-12.8,14.7-19.1C484,444.1,484.7,443.8,485.2,443.3z"/>
	<path class="st14" d="M34.2,617.7c-1.2,0-2.4,0-3.6,0c0-0.2,0-0.5,0.1-0.6c3.6-1.1,3.4-4.2,3.7-7c3.3-26.3,6.7-52.7,10.1-79
		c0.5-3.6,0.8-7.1,1.6-10.6c1-3.4,3.1-1.4,4.9-1.1c-2.3-0.2-3.4,0-2,2.8c9.2,17.2,18.2,34.4,27.2,51.6c4.5,8.6,8.6,17.4,13.2,25.9
		c2.5,4.6,5.1,9.2,7.2,14c0.3,0.7,1,1,1.7,1c-0.5,0.6-1.2,0.5-1.9,0.6c-7.8,0.2-15.5,0.3-23.3,0.7c-12.2,0.5-24.5,1.1-36.7,1.2
		C35.8,617.1,35,617.5,34.2,617.7z"/>
	<path class="st15" d="M822.1,475c-4.9-0.9-8.8-4.1-13-6.3c-9-4.7-17.7-9.8-26.6-14.6c-5.1-2.8-10.3-5.5-15.5-8.4
		c-1-0.5-2.3-0.9-2.5-2.4c24.3-6.4,48.7-12.8,73-19.2c9.2-2.4,18.5-4.8,27.7-7.2c2.3,0.3,4.4-1.2,7.4-1
		C855.6,435.8,838.9,455.4,822.1,475z"/>
	<path class="st16" d="M46.1,520.4c0.8,3.7-0.4,7.4-0.7,11c-0.9,8.8-2.2,17.5-3.4,26.2c-1.1,8.5-2.3,17.1-3.4,25.6
		c-0.9,7.2-1.7,14.4-2.6,21.6c-0.4,3.4-0.8,6.9-1.2,10.3c-0.1,1.2-0.8,1.8-2,1.8c-0.8,0-1.6-0.2-2.2,0.6c-8.9-0.2-17.8,0.2-26.7,0.6
		c-1.1,0-2.4,0.4-3.4-0.7c5.8-12.4,11.5-24.8,17.3-37.1c8.8-18.9,17.7-37.7,26.5-56.6C44.9,522.7,45.5,521.6,46.1,520.4z"/>
	<path class="st17" d="M1135.2,412.1c-0.1,1.3-1.2,1.4-2.1,1.9c-10.5,5.8-21,11.7-31.4,17.6c-7.4,4.2-15,8.1-22.4,12.3
		c-7.9,4.5-15.9,8.8-23.8,13.4c-5.3,3.2-11,5.9-16.4,9c-6,3.5-12.3,6.3-17.9,10.4c-0.8,0.2-1.6,0.4-2.4,0.6
		c-2.1-1.1-4.2-2.3-6.5-3.1c-0.8-0.3-1.7-0.7-1.9-1.7c6.8-3.4,13.5-6.8,20.3-10.1c11.4-5.5,22.8-11,34.2-16.5
		c22-10.7,43.9-21.3,65.9-32C1132.2,413.3,1133.7,412.7,1135.2,412.1z"/>
	<path class="st18" d="M1010.4,472.6c2.1,1,4.3,1.9,6.4,2.9c0.8,0.4,2,0.6,2,1.9c-22.3,9-44.5,18-66.8,27
		c-6.1,2.5-12.2,4.8-18.3,7.2c-0.9,0.3-1.8,0.9-2.8,0.8c-1.4-0.1-1.1-0.8-0.3-1.4c15.1-7.4,30.3-14.8,45.4-22.1
		c10.1-4.9,20.3-9.7,30.4-14.6c1-0.5,2.1-0.7,2.8-1.7C1009.6,472.6,1010,472.6,1010.4,472.6z"/>
	<path class="st19" d="M930.7,511c-0.3,0.8-0.4,1.3,0.8,1.1c0.7-0.2,1.5-0.3,2.2-0.5c-5.8,2.8-11.8,5.2-17.9,7.2
		c-0.2-0.2-1-0.3-0.6-0.5C920.5,516.1,925.3,512.9,930.7,511z"/>
	<path class="st20" d="M100.8,612.3c1.8,1.5,3.2-1.3,4.9-0.6c-1.8,1.3-3.8,2-6,2.4C99,612.9,100.2,612.7,100.8,612.3z"/>
	<path class="st6" d="M441.4,502c1.2-1.1,2.6-1.3,4.2-1.2C444.4,501.7,442.9,502,441.4,502z"/>
	<path class="st17" d="M1138.1,410.8c-0.7,1-1.8,1.3-3,1.3C1135.9,411.1,1137,410.9,1138.1,410.8z"/>
	<path class="st21" d="M557.7,447.4c-1.2-0.5-1.7-1-1.5-2.7c2.2-14.1,4.2-28.2,6.3-42.3c2.1-13.8,4.4-27.6,6.4-41.4
		c1.6-10.5,2.9-21,4.4-31.5c0.8,1.6,0.9,3.4,1,5.1c0.4,6.1,0.4,12.1,0.7,18.2c0.7,12.6,1.6,25.1,2.3,37.7c0.2,4.1,0.3,8.1,0.5,12.2
		c0.7,9.8,0.7,19.7,1.4,29.5c0.3,3.9,0.4,7.7,0.5,11.6c0,0.8,0,1.6,0,2.4c-1.2,1.2-2.8,0.9-4.3,0.9
		C569.7,447.3,563.7,446.9,557.7,447.4z"/>
	<path class="st22" d="M557.7,447.4c0.3-1.6,1.6-1.2,2.6-1.2c6.5,0,13,0,19.6,0c1.1,2.2,0.4,4.5,0.6,6.8c0.1,1.3,0,2.5,0.4,3.8
		c0.6,1.9-0.2,2.8-2.2,2.6c-1-0.4-2-0.8-3-1.2C570,454.1,563.7,451,557.7,447.4z"/>
</g>
</svg>
